<?xml version="1.0" standalone="no"?>
<!DOCTYPE svg PUBLIC "-//W3C//DTD SVG 20010904//EN"
 "http://www.w3.org/TR/2001/REC-SVG-20010904/DTD/svg10.dtd">
<svg version="1.0" xmlns="http://www.w3.org/2000/svg"
 width="980.000000pt" height="958.000000pt" viewBox="0 0 980.000000 958.000000"
 preserveAspectRatio="xMidYMid meet">

<g transform="translate(0.000000,958.000000) scale(0.100000,-0.100000)"
fill="#000000" stroke="none">
<path d="M5828 9547 c-31 -13 -103 -58 -160 -99 -57 -42 -928 -681 -1937
-1422 -1600 -1173 -1837 -1344 -1850 -1332 -9 8 -36 24 -61 37 l-45 24 -746 3
c-737 2 -748 2 -803 -18 -78 -30 -155 -103 -192 -182 l-29 -63 -3 -1685 c-2
-1667 -2 -1686 18 -1752 36 -120 144 -213 275 -237 81 -15 1349 -15 1430 0 59
11 126 39 155 65 13 11 282 -182 1950 -1406 1064 -781 1955 -1430 1980 -1442
37 -18 62 -23 140 -23 82 0 103 4 152 27 104 49 177 144 199 262 6 32 8 1713
7 4521 l-3 4470 -32 67 c-62 131 -164 199 -308 205 -67 3 -89 0 -137 -20z
m-230 -6621 l-3 -1865 -1295 951 c-712 522 -1517 1112 -1788 1311 l-492 361 0
1106 0 1106 1788 1311 1787 1311 3 -1864 c1 -1025 1 -2703 0 -3728z m-4288
1864 l0 -1270 -300 0 -300 0 0 1270 0 1270 300 0 300 0 0 -1270z"/>
<path d="M6822 6418 c-73 -11 -139 -47 -195 -107 -73 -77 -92 -127 -92 -236 0
-159 -27 -125 589 -742 l541 -543 -541 -542 c-616 -618 -589 -584 -589 -743 0
-78 4 -97 28 -146 37 -76 117 -150 192 -178 50 -19 74 -22 145 -19 146 7 127
-8 730 594 l535 534 535 -535 c604 -605 583 -588 730 -593 68 -3 96 1 142 18
109 41 193 142 218 263 15 75 6 139 -32 219 -26 57 -83 117 -561 596 l-531
532 536 538 c613 613 592 587 593 742 0 73 -4 94 -29 147 -66 144 -213 224
-371 202 -113 -15 -114 -16 -690 -590 l-540 -539 -525 525 c-289 289 -545 539
-570 554 -75 48 -155 64 -248 49z"/>
</g>
</svg>
